REM DIRINDEX 1\2,1\3,1\4,1\5
REM DIRNAME "folder01","folder02","folder03","folder04","folder05"
TITLE ""
FILE "1Q_t_1949-1958.mp3" MP3
  TRACK 01 AUDIO
    TITLE "0:"
    INDEX 01 00:00:00
  TRACK 02 AUDIO
    TITLE "3:cjc172_6852"
    INDEX 01 00:00:10
  TRACK 03 AUDIO
    TITLE "0:"
    INDEX 01 00:01:33
  TRACK 04 AUDIO
    TITLE "4:cjc172_6853"
    INDEX 01 00:01:43
  TRACK 05 AUDIO
    TITLE "0:"
    INDEX 01 00:03:46
  TRACK 06 AUDIO
    TITLE "5:cjc172_6854"
    INDEX 01 00:03:54
  TRACK 07 AUDIO
    TITLE "0:"
    INDEX 01 00:10:19
  TRACK 08 AUDIO
    TITLE "3:cjc172_6855"
    INDEX 01 00:10:64
  TRACK 09 AUDIO
    TITLE "0:"
    INDEX 01 00:11:65
  TRACK 10 AUDIO
    TITLE "4:cjc172_6856"
    INDEX 01 00:11:73
  TRACK 11 AUDIO
    TITLE "0:"
    INDEX 01 00:13:11
  TRACK 12 AUDIO
    TITLE "5:cjc172_6857"
    INDEX 01 00:13:21
  TRACK 13 AUDIO
    TITLE "0:"
    INDEX 01 00:17:44
  TRACK 14 AUDIO
    TITLE "3:cjc172_6858"
    INDEX 01 00:18:18
  TRACK 15 AUDIO
    TITLE "0:"
    INDEX 01 00:19:25
  TRACK 16 AUDIO
    TITLE "4:cjc172_6859"
    INDEX 01 00:19:39
  TRACK 17 AUDIO
    TITLE "0:"
    INDEX 01 00:22:02
  TRACK 18 AUDIO
    TITLE "5:cjc172_6860"
    INDEX 01 00:22:12
  TRACK 19 AUDIO
    TITLE "0:"
    INDEX 01 00:27:35
  TRACK 20 AUDIO
    TITLE "3:cjc172_6861"
    INDEX 01 00:28:05
  TRACK 21 AUDIO
    TITLE "0:"
    INDEX 01 00:29:16
  TRACK 22 AUDIO
    TITLE "4:cjc172_6862"
    INDEX 01 00:29:28
  TRACK 23 AUDIO
    TITLE "0:"
    INDEX 01 00:31:21
  TRACK 24 AUDIO
    TITLE "5:cjc172_6863"
    INDEX 01 00:31:28
  TRACK 25 AUDIO
    TITLE "0:"
    INDEX 01 00:35:54
  TRACK 26 AUDIO
    TITLE "3:cjc172_6864"
    INDEX 01 00:36:28
  TRACK 27 AUDIO
    TITLE "0:"
    INDEX 01 00:37:21
  TRACK 28 AUDIO
    TITLE "4:cjc172_6865"
    INDEX 01 00:37:35
  TRACK 29 AUDIO
    TITLE "0:"
    INDEX 01 00:40:25
  TRACK 30 AUDIO
    TITLE "5:cjc172_6866"
    INDEX 01 00:40:33
  TRACK 31 AUDIO
    TITLE "0:"
    INDEX 01 00:45:40
  TRACK 32 AUDIO
    TITLE "3:cjc172_6867"
    INDEX 01 00:46:14
  TRACK 33 AUDIO
    TITLE "0:"
    INDEX 01 00:47:51
  TRACK 34 AUDIO
    TITLE "4:cjc172_6868"
    INDEX 01 00:47:59
  TRACK 35 AUDIO
    TITLE "0:"
    INDEX 01 00:48:60
  TRACK 36 AUDIO
    TITLE "5:cjc172_6869"
    INDEX 01 00:48:68
  TRACK 37 AUDIO
    TITLE "0:"
    INDEX 01 00:54:04
  TRACK 38 AUDIO
    TITLE "3:cjc172_6870"
    INDEX 01 00:54:49
  TRACK 39 AUDIO
    TITLE "0:"
    INDEX 01 00:55:68
  TRACK 40 AUDIO
    TITLE "4:cjc172_6871"
    INDEX 01 00:56:01
  TRACK 41 AUDIO
    TITLE "0:"
    INDEX 01 00:57:14
  TRACK 42 AUDIO
    TITLE "5:cjc172_6872"
    INDEX 01 00:57:24
  TRACK 43 AUDIO
    TITLE "0:"
    INDEX 01 01:00:73
  TRACK 44 AUDIO
    TITLE "3:cjc172_6873"
    INDEX 01 01:01:43
  TRACK 45 AUDIO
    TITLE "0:"
    INDEX 01 01:02:68
  TRACK 46 AUDIO
    TITLE "4:cjc172_6874"
    INDEX 01 01:03:03
  TRACK 47 AUDIO
    TITLE "0:"
    INDEX 01 01:04:61
  TRACK 48 AUDIO
    TITLE "5:cjc172_6875"
    INDEX 01 01:04:69
  TRACK 49 AUDIO
    TITLE "0:"
    INDEX 01 01:09:13
  TRACK 50 AUDIO
    TITLE "3:cjc172_6876"
    INDEX 01 01:09:60
  TRACK 51 AUDIO
    TITLE "0:"
    INDEX 01 01:10:66
  TRACK 52 AUDIO
    TITLE "4:cjc172_6877"
    INDEX 01 01:11:03
  TRACK 53 AUDIO
    TITLE "0:"
    INDEX 01 01:13:09
  TRACK 54 AUDIO
    TITLE "5:cjc172_6878"
    INDEX 01 01:13:17
  TRACK 55 AUDIO
    TITLE "0:"
    INDEX 01 01:17:27
  TRACK 56 AUDIO
    TITLE "3:cjc172_6879"
    INDEX 01 01:17:74
  TRACK 57 AUDIO
    TITLE "0:"
    INDEX 01 01:18:71
  TRACK 58 AUDIO
    TITLE "4:cjc172_6880"
    INDEX 01 01:19:06
  TRACK 59 AUDIO
    TITLE "0:"
    INDEX 01 01:20:19
  TRACK 60 AUDIO
    TITLE "5:cjc172_6881"
    INDEX 01 01:20:29
  TRACK 61 AUDIO
    TITLE "0:"
    INDEX 01 01:24:50
